<svg xmlns="http://www.w3.org/2000/svg" viewBox="0 0 10 8" shape-rendering="crispEdges">
  <g fill="#FBBF24">
    <rect x="3" y="0" width="4" height="1"></rect>
    <rect x="2" y="1" width="6" height="1"></rect>
    <rect x="1" y="2" width="8" height="1"></rect>
    <rect x="1" y="3" width="1" height="1"></rect><rect x="2" y="3" width="1" height="1"></rect><rect x="4" y="3" width="2" height="1"></rect><rect x="7" y="3" width="1" height="1"></rect><rect x="8" y="3" width="1" height="1"></rect>
    <rect x="1" y="4" width="8" height="1"></rect>
    <rect x="0" y="5" width="10" height="1"></rect>
    <rect x="1" y="6" width="8" height="1"></rect>
    <rect x="2" y="7" width="1" height="1"></rect><rect x="7" y="7" width="1" height="1"></rect>
  </g>
  <g fill="#1E2245">
    <rect x="3" y="3" width="1" height="1"></rect>
    <rect x="6" y="3" width="1" height="1"></rect>
  </g>
</svg>